<svg xmlns="http://www.w3.org/2000/svg" xmlns:xlink="http://www.w3.org/1999/xlink" fill="none" version="1.1" width="22" height="22" viewBox="0 0 22 22"><defs><clipPath id="master_svg0_57_0463/7_4301"><rect x="4" y="4" width="14" height="14" rx="0"/></clipPath></defs><g clip-path="url(#master_svg0_57_0463/7_4301)"><path d="M16.94073693980789,10.905087852610778C16.94073693980789,10.905087852610778,11.657924939807891,5.625009802610779,11.657924939807891,5.625009802610779C11.657924939807891,5.625009802610779,11.303824239807891,5.270908252610779,11.303824239807891,5.270908252610779C11.22314243980789,5.190759044610779,11.114033539807892,5.145776152610779,11.000307839807892,5.145776152610779C10.88658263980789,5.145776152610779,10.77747423980789,5.190759044610779,10.696792439807892,5.270908252610779C10.696792439807892,5.270908252610779,5.059878829807892,10.905087852610778,5.059878829807892,10.905087852610778C4.977206499807892,10.98743765261078,4.911869209807892,11.085515352610779,4.867723561807892,11.19353135261078C4.823577919807891,11.301546952610778,4.801518597107892,11.417312552610777,4.802847609283892,11.53399405261078C4.808316358807891,12.01524385261078,5.208902239807892,12.399423052610778,5.690152229807892,12.399423052610778C5.690152229807892,12.399423052610778,6.271207039807892,12.399423052610778,6.271207039807892,12.399423052610778C6.271207039807892,12.399423052610778,6.271207039807892,16.852353152610778,6.271207039807892,16.852353152610778C6.271207039807892,16.852353152610778,15.729410939807892,16.852353152610778,15.729410939807892,16.852353152610778C15.729410939807892,16.852353152610778,15.729410939807892,12.399423052610778,15.729410939807892,12.399423052610778C15.729410939807892,12.399423052610778,16.322768939807894,12.399423052610778,16.322768939807894,12.399423052610778C16.55655793980789,12.399423052610778,16.77667493980789,12.307821652610778,16.94210493980789,12.14239255261078C17.023560939807894,12.061197152610779,17.088101939807892,11.964649052610778,17.13198693980789,11.858338752610779C17.17587193980789,11.752027852610778,17.198230939807893,11.638068052610778,17.197768939807894,11.52305635261078C17.197768939807894,11.29063455261078,17.106166939807892,11.07051695261078,16.94073693980789,10.905087852610778C16.94073693980789,10.905087852610778,16.94073693980789,10.905087852610778,16.94073693980789,10.905087852610778ZM11.765932839807892,15.867978152610778C11.765932839807892,15.867978152610778,10.234682839807892,15.867978152610778,10.234682839807892,15.867978152610778C10.234682839807892,15.867978152610778,10.234682839807892,13.078915952610778,10.234682839807892,13.078915952610778C10.234682839807892,13.078915952610778,11.765932839807892,13.078915952610778,11.765932839807892,13.078915952610778C11.765932839807892,13.078915952610778,11.765932839807892,15.867978152610778,11.765932839807892,15.867978152610778ZM14.745035439807891,11.41504845261078C14.745035439807891,11.41504845261078,14.745035439807891,15.867978152610778,14.745035439807891,15.867978152610778C14.745035439807891,15.867978152610778,12.640932839807892,15.867978152610778,12.640932839807892,15.867978152610778C12.640932839807892,15.867978152610778,12.640932839807892,12.750790952610778,12.640932839807892,12.750790952610778C12.640932839807892,12.448642152610779,12.396206639807893,12.203915952610778,12.094057839807892,12.203915952610778C12.094057839807892,12.203915952610778,9.906557839807892,12.203915952610778,9.906557839807892,12.203915952610778C9.604410039807892,12.203915952610778,9.35968333980789,12.448642152610779,9.35968333980789,12.750790952610778C9.35968333980789,12.750790952610778,9.35968333980789,15.867978152610778,9.35968333980789,15.867978152610778C9.35968333980789,15.867978152610778,7.255581639807891,15.867978152610778,7.255581639807891,15.867978152610778C7.255581639807891,15.867978152610778,7.255581639807891,11.41504845261078,7.255581639807891,11.41504845261078C7.255581639807891,11.41504845261078,5.943082039807892,11.41504845261078,5.943082039807892,11.41504845261078C5.943082039807892,11.41504845261078,11.001674939807891,6.360556752610779,11.001674939807891,6.360556752610779C11.001674939807891,6.360556752610779,11.317496139807892,6.676376952610779,11.317496139807892,6.676376952610779C11.317496139807892,6.676376952610779,16.05890093980789,11.41504845261078,16.05890093980789,11.41504845261078C16.05890093980789,11.41504845261078,14.745035439807891,11.41504845261078,14.745035439807891,11.41504845261078Z" fill="#000000" fill-opacity="0.44999998807907104"/></g></svg>