<svg xmlns="http://www.w3.org/2000/svg" fill="none" viewBox="0 0 12.395 11.707" aria-hidden="true">
  <path d="M12.137946,5.7593117C12.137946,5.7593117,6.855134,0.47923365,6.855134,0.47923365C6.855134,0.47923365,6.5010333,0.1251321,6.5010333,0.1251321C6.4203515,0.044982892,6.3112426,1.9428903e-16,6.1975169,0C6.0837917,0,5.9746833,0.044982892,5.8940015,0.1251321C5.8940015,0.1251321,0.25708789,5.7593117,0.25708789,5.7593117C0.17441556,5.8416615,0.10907827,5.9397392,0.064932622,6.0477552C0.02078698,6.1557708,-0.0012723427,6.2715364,0.000056669476,6.3882179C0.005525419,6.8694677,0.4061113,7.2536469,0.88736129,7.2536469C0.88736129,7.2536469,1.4684161,7.2536469,1.4684161,7.2536469C1.4684161,7.2536469,1.4684161,11.706577,1.4684161,11.706577C1.4684161,11.706577,10.92662,11.706577,10.92662,11.706577C10.92662,11.706577,10.92662,7.2536469,10.92662,7.2536469C10.92662,7.2536469,11.519978,7.2536469,11.519978,7.2536469C11.753767,7.2536469,11.973884,7.1620455,12.139314,6.9966164C12.22077,6.915421,12.285311,6.8188729,12.329196,6.7125626C12.373081,6.6062517,12.39544,6.4922919,12.394978,6.3772802C12.394978,6.1448584,12.303376,5.9247408,12.137946,5.7593117C12.137946,5.7593117,12.137946,5.7593117,12.137946,5.7593117ZM6.9631419,10.722202C6.9631419,10.722202,5.4318919,10.722202,5.4318919,10.722202C5.4318919,10.722202,5.4318919,7.9331398,5.4318919,7.9331398C5.4318919,7.9331398,6.9631419,7.9331398,6.9631419,7.9331398C6.9631419,7.9331398,6.9631419,10.722202,6.9631419,10.722202ZM9.9422445,6.2692723C9.9422445,6.2692723,9.9422445,10.722202,9.9422445,10.722202C9.9422445,10.722202,7.8381419,10.722202,7.8381419,10.722202C7.8381419,10.722202,7.8381419,7.6050148,7.8381419,7.6050148C7.8381419,7.302866,7.5934157,7.0581398,7.2912669,7.0581398C7.2912669,7.0581398,5.1037669,7.0581398,5.1037669,7.0581398C4.8016191,7.0581398,4.5568924,7.302866,4.5568924,7.6050148C4.5568924,7.6050148,4.5568924,10.722202,4.5568924,10.722202C4.5568924,10.722202,2.4527907,10.722202,2.4527907,10.722202C2.4527907,10.722202,2.4527907,6.2692723,2.4527907,6.2692723C2.4527907,6.2692723,1.1402911,6.2692723,1.1402911,6.2692723C1.1402911,6.2692723,6.198884,1.2147806,6.198884,1.2147806C6.198884,1.2147806,6.5147052,1.5306008,6.5147052,1.5306008C6.5147052,1.5306008,11.25611,6.2692723,11.25611,6.2692723C11.25611,6.2692723,9.9422445,6.2692723,9.9422445,6.2692723Z" fill="#000000" fill-opacity="0.45"/>
</svg>
