<svg xmlns="http://www.w3.org/2000/svg" fill="none" viewBox="55 98 372 102" role="img" aria-label="DejaOS">
  <path d="M66,175.74955510591127L66,104.23476910591125L98.42990900000001,104.23476910591125C124.105682,106.46071770591125,136.410995,131.29240910591125,127.714569,154.23204910591124C117.61468099999999,180.86922910591124,90.27231,174.74787610591125,67.5412973,175.50222510591124C67.0150005,175.51459210591125,66.53882712,175.73718010591125,66.012530266,175.74955510591127L66,175.74955510591127ZM80.523287,163.28423810591124C80.911745,163.48210310591125,81.350324,163.53156810591125,81.788906,163.56866610591126C87.828789,164.00148910591125,98.642933,163.80362410591124,104.018681,161.10775510591125C117.226231,154.46700810591124,118.805115,130.16707010591125,107.915783,121.12724210591125C100.058926,114.59779310591125,89.971571,116.81137610591125,80.48569499999999,116.42801810591125L80.523287,163.28423810591124Z" fill="#090E1E"/>
  <path d="M418.806846875,124.87425768687439L404.308608875,124.87425768687439C403.118163875,115.69840368687439,393.068408875,113.20039668687438,385.098771875,114.94405568687439C376.715612875,116.77428068687439,374.610433875,125.3936456868744,382.768029875,129.5982166868744C394.609721875,135.7072066868744,417.177802875,134.95285768687438,419.734115875,151.73404268687437C421.701469875,164.6940036868744,412.503814875,173.7214656868744,400.323802875,176.1329116868744C383.356999875,179.5089256868744,362.906599275,173.7585676868744,360.701171875,154.41754468687438L360.964328735,153.93525268687438L375.587859875,154.0341866868744C376.590334875,158.6221116868744,379.322057875,162.2578346868744,383.833179875,163.9643896868744C389.810414875,166.2274396868744,402.115745875,165.95538268687437,404.571788875,158.7581476868744C406.739642875,152.40182868687438,401.539294875,149.7306896868744,396.476852875,147.9746586868744C384.948443875,143.9555856868744,365.287496575,141.82856768687438,363.019410875,127.0754756868744C359.009533975,101.09370878687439,400.098296875,95.85036348687439,414.057670875,112.33474998687439C416.964839875,115.7726026868744,418.493613875,120.4594606868744,418.819388875,124.87425768687439L418.806846875,124.87425768687439Z" fill="#090E1E"/>
  <path d="M221.62096381914063,140.1096419345703C222.72367761914063,129.0169968345703,232.48523211914062,122.93273985457031,243.11141011914063,122.27732082457031C256.3064231191406,121.47350657457031,268.48643911914064,125.49258043457031,269.3886641191406,140.20857393457032C270.0026851191406,150.38610293457032,268.8999561191406,161.1695899345703,269.3635941191406,171.40895093457033C269.3886641191406,172.0643649345703,270.0026631191406,175.57641593457032,269.85230211914063,175.7371829345703L256.7700611191406,175.6382489345703C256.5445141191406,175.47748593457032,256.1309971191406,171.5697099345703,256.0808561191406,170.9266549345703C256.03074611914064,170.41963593457032,256.28135711914064,167.99582693457032,255.71746811914062,168.0081899345703C247.81049011914064,182.00693893457031,220.50570711914062,179.2739639345703,219.47817549514062,161.80026593457032C218.43811051914062,144.3513009345703,240.10400811914062,145.8105349345703,251.88302211914063,143.81954793457032C252.5220911191406,143.70824993457032,255.15358711914064,143.28779193457032,255.32901811914064,142.76840593457032C256.8953741191406,134.3592689345703,250.25400711914062,131.15637593457032,242.71041311914064,132.6650729345703C239.92855811914063,133.2215609345703,236.62040711914062,135.4598749345703,235.75577311914063,138.2299459345703C235.54274911914064,138.91009293457032,235.86854511914063,139.6768109345703,235.29213811914062,140.1096339345703L221.63347841914063,140.1096339345703L221.62096381914063,140.1096419345703ZM255.59217411914062,150.65816493457032C251.11864511914064,152.4018229345703,246.23160711914062,152.2410599345703,241.57011811914063,153.10670893457032C236.90863011914064,153.97235293457032,232.56041411914063,156.0870059345703,233.80097911914064,161.50348293457031C235.48011011914062,168.91094593457032,247.68519211914062,167.5753749345703,252.0459331191406,163.21004093457032C255.50444411914063,159.7598229345703,255.29142411914063,155.1347999345703,255.59217411914062,150.65816493457032Z" fill="#090E1E"/>
  <path d="M149.15490265673827,152.5378552836914C149.48070765673828,158.53554528369142,153.50311865673828,164.3724782836914,159.60564965673828,165.7822492836914C165.70817965673828,167.1920132836914,172.88837765673827,165.3370552836914,175.40708565673827,159.3269922836914L188.58957265673828,159.3269922836914C184.6172946567383,173.22680628369142,170.48246365673828,178.9895402836914,156.73608765673828,176.3431322836914C124.99537265673828,170.2217712836914,128.98019215673827,119.7916719836914,165.41998465673828,122.28968153869141C181.15876365673827,123.3655577836914,191.37143365673828,136.36262428369142,189.55446265673828,151.7216662836914C189.51686865673827,152.0679242836914,189.5293996567383,152.3276212836914,189.19105865673828,152.5254842836914L149.15490265673827,152.5254842836914L149.15490265673827,152.5378552836914ZM149.39299265673827,144.5615372836914L175.5449366567383,144.4626022836914C176.03363765673828,144.1410792836914,175.31937765673828,141.70490028369142,175.1188926567383,141.09894728369142C172.9259906567383,134.2356052836914,166.62295565673827,131.2553081836914,159.6056666567383,132.7145412836914C153.7662736567383,133.93881228369142,150.2075106567383,138.94719928369142,149.39299265673827,144.5615372836914Z" fill="#090E1E"/>
  <path d="M318.0711364746094,177.86419602503014L318.0711364746094,166.95705302503012C320.4144046746094,164.31064502503014,323.2463950746094,162.04759502503015,325.80268577460936,159.57432102503014C332.5192374746094,153.06960202503012,338.9726294746094,146.30519402503012,346.10270547460937,140.22093502503014C336.5291154746094,131.47790502503014,327.33145427460937,122.33914502503013,318.0711364746094,113.26222502503013L318.0711364746094,102.35507902503014C330.9278104746094,103.24545851503014,342.0677584746094,109.15658892503014,349.5361704746094,119.49488202503014C358.84660347460937,132.39301802503013,358.7213054746094,147.29450202503014,349.39832647460935,160.10607502503012C341.98005447460935,170.28359902503013,330.94035347460937,177.01091702503015,318.08366046960936,177.85182902503016L318.0711364746094,177.86419602503014Z" fill="#090E1E"/>
  <path d="M313.56002026171876,177.6292417216797C292.00691626171874,176.4668047216797,275.49121196171876,158.8818097216797,276.7192517147187,137.40140572167968C277.80943186171874,118.46847472167968,294.41284326171876,102.87446830167968,313.57256726171875,102.70133972167969L313.79811126171876,116.89794572167969C309.7506442617188,117.04634072167968,305.7783562617187,118.33244472167969,302.4576642617188,120.59549172167968C289.50074126171876,129.47455372167968,288.77394926171877,148.5682527216797,301.3298932617188,158.16455472167968C304.92624826171874,160.90989672167967,309.0363732617187,162.5175167216797,313.56002026171876,163.0987397216797L313.56002026171876,177.6416087216797L313.56002026171876,177.6292417216797Z" fill="#090E1E"/>
  <path d="M211.8719500942383,123.4644947052002C211.82182709423827,125.38128300520019,211.93460809423829,127.2980735052002,211.8719500942383,129.2148619052002C211.6589280942383,137.9207937052002,211.64639309423828,146.5277997052002,211.60880309423828,155.2213627052002C211.5712110942383,163.3337117052002,212.14763309423827,172.33643870520018,211.63386109423828,180.3251167052002C211.29553009423827,185.4819007052002,208.9647880942383,190.3418907052002,204.97996909423827,193.6808107052002C199.2408240942383,198.4789597052002,191.6847056942383,198.41713870520022,184.55463409423828,197.5391257052002L184.79272383423827,185.5932027052002C188.94044159423828,186.4712127052002,194.4665631942383,186.8051167052002,196.70959109423828,182.4645097052002C197.03539609423828,181.8338227052002,197.86243009423828,179.2616177052002,197.86243009423828,178.66803170520018L197.86243009423828,123.4644947052002L211.88448309423828,123.4644947052002L211.8719500942383,123.4644947052002Z" fill="#090E1E"/>
  <path d="M198.88995192363282,115.179016C195.1933470236328,111.7782612,195.9201306136328,105.0138505,200.61920972363282,102.86210042C206.03254892363282,100.3888242,213.15008972363282,103.4062213,213.0874287236328,109.750175C213.0122467236328,116.76191299999999,203.8271112236328,119.729843,198.88995192363282,115.179016Z" fill="#090E1E"/>
</svg>
