<svg xmlns="http://www.w3.org/2000/svg" xmlns:xlink="http://www.w3.org/1999/xlink" fill="none" version="1.1" width="9" height="9" viewBox="0 0 9 9"><path d="M7.5310893,14.250000499999999Q7.5638609,14.306763199999999,7.5889435,14.367317700000001Q7.6140261,14.4278717,7.63099,14.4911823Q7.647954,14.554492,7.6565089,14.6194744Q7.6650639,14.6844568,7.6650639,14.750000499999999Q7.6650639,14.8155441,7.6565089,14.880527Q7.647954,14.945509900000001,7.63099,15.008820100000001Q7.6140261,15.0721302,7.5889435,15.1326842Q7.5638614,15.1932383,7.5310898,15.25Q7.4983182,15.3067627,7.4584179,15.3587618Q7.4185176,15.4107609,7.3721709,15.4571075Q7.3258247,15.5034537,7.2738256,15.543354Q7.2218266,15.583253899999999,7.1650639,15.6160259Q7.1083016,15.648798,7.0477476,15.6738801Q6.9871931,15.6989627,6.9238834,15.7159266Q6.8605733,15.732890099999999,6.7955904,15.7414451Q6.7306075,15.750000499999999,6.6650639,15.750000499999999L2.3349366,15.750000499999999Q2.2693932,15.750000499999999,2.2044106,15.741445500000001Q2.1394279,15.732890099999999,2.0761178,15.7159266Q2.0128078,15.6989627,1.9522533,15.6738801Q1.8916991,15.648798,1.8349366,15.6160259Q1.7781744,15.583254799999999,1.7261752,15.5433545Q1.6741761,15.503454699999999,1.6278299,15.4571085Q1.5814836,15.4107618,1.5415833,15.3587627Q1.501683,15.3067636,1.4689112,15.250001000000001Q1.4361395,15.1932392,1.411057,15.1326847Q1.3859746,15.072130699999999,1.3690108,15.008820499999999Q1.352047,14.9455104,1.3434918,14.8805275Q1.3349366,14.815544599999999,1.3349366,14.750001000000001Q1.3349366,14.6844578,1.3434918,14.619475399999999Q1.352047,14.5544925,1.3690108,14.4911823Q1.3859746,14.4278717,1.4110571,14.367317700000001Q1.4361395,14.306763199999999,1.4689112,14.250000499999999L3.6339746,10.5000001Q3.6503429,10.4716494,3.6685305,10.44443Q3.686718,10.4172106,3.7066469,10.3912388Q3.7265759,10.365267,3.7481604,10.3406544Q3.7697453,10.3160417,3.7928934,10.2928934Q3.8160419,10.2697451,3.8406544,10.248160500000001Q3.8652673,10.2265757,3.8912387,10.206646899999999Q3.9172106,10.1867182,3.9444299,10.1685307Q3.9716494,10.1503432,4,10.1339748Q4.0283508,10.1176065,4.0577116,10.1031275Q4.0870724,10.0886484,4.1173167,10.0761206Q4.1475616,10.0635929,4.1785607,10.0530701Q4.2095599,10.0425472,4.2411809,10.0340743Q4.2728024,10.0256015,4.3049097,10.019214999999999Q4.3370171,10.0128284,4.3694735,10.0085554Q4.4019303,10.0042825,4.434597,10.0021414Q4.4672637,10.0000002,4.5,10.0000001Q4.5327368,10.0000002,4.5654035,10.0021412Q4.5980701,10.0042824,4.6305265,10.0085553Q4.6629829,10.0128284,4.6950903,10.0192149Q4.7271976,10.0256015,4.7588191,10.0340743Q4.7904406,10.0425472,4.8214397,10.0530701Q4.8524389,10.0635929,4.8826838,10.0761207Q4.9129286,10.088648599999999,4.9422894,10.1031275Q4.9716501,10.1176065,5.0000005,10.1339748Q5.0283518,10.1503432,5.0555711,10.1685307Q5.0827904,10.1867182,5.1087623,10.206646899999999Q5.1347342,10.2265757,5.1593471,10.248160500000001Q5.1839595,10.2697451,5.2071075,10.2928934Q5.2302561,10.3160417,5.2518406,10.3406544Q5.2734251,10.365267,5.2933536,10.3912387Q5.3132825,10.4172105,5.33147,10.4444299Q5.3496571,10.4716494,5.3660254,10.5000001L7.5310893,14.250000499999999Z" fill="#878787" fill-opacity="1" transform="matrix(1,0,0,-1,0,18)"/></svg>