<svg xmlns="http://www.w3.org/2000/svg" xmlns:xlink="http://www.w3.org/1999/xlink" fill="none" version="1.1" width="22" height="23" viewBox="0 0 22 23"><defs><filter id="master_svg0_44_5298" filterUnits="objectBoundingBox" color-interpolation-filters="sRGB" x="0" y="0" width="1" height="1.0454545415137428"><feFlood flood-opacity="0" result="BackgroundImageFix"/><feColorMatrix in="SourceAlpha" type="matrix" values="0 0 0 0 0 0 0 0 0 0 0 0 0 0 0 0 0 0 127 0"/><feOffset dy="1" dx="0"/><feGaussianBlur stdDeviation="0"/><feColorMatrix type="matrix" values="0 0 0 0 0.9019607901573181 0 0 0 0 0.9019607901573181 0 0 0 0 0.9019607901573181 0 0 0 1 0"/><feBlend mode="normal" in2="BackgroundImageFix" result="effect1_dropShadow"/><feBlend mode="normal" in="SourceGraphic" in2="effect1_dropShadow" result="shape"/></filter></defs><ellipse cx="11.000000953674316" cy="11.000000953674316" rx="11.000000953674316" ry="11.000000953674316" fill="#FFFFFF" fill-opacity="1" filter="url(#master_svg0_44_5298)"/><path d="M16.5,16.45L16.5,6.55000001Q16.5,6.11177684,16.1848106,5.80358918Q15.8743238,5.49999994,15.4374981,5.49999994L7.5625,5.5Q7.12568113,5.5,6.81519349,5.8035879Q6.5,6.11177714,6.5,6.55000001L6.5,16.45Q6.5,16.888229000000003,6.8151955300000004,17.196417Q7.12568177,17.5,7.5625,17.5L15.4375,17.5Q15.8743248,17.5,16.184809700000002,17.196415000000002Q16.5,16.888229000000003,16.5,16.45ZM15.4374981,6.49999997Q15.5,6.49999997,15.5,6.55000001L15.5,16.45Q15.5,16.5,15.4375,16.5L7.5625,16.5Q7.5,16.5,7.5,16.45L7.5,6.55000001Q7.5,6.5,7.5625,6.5L15.4374981,6.49999997Z" fill-rule="evenodd" fill="#575757" fill-opacity="1" style="mix-blend-mode:passthrough"/><path d="M9.25,13.650000095367432L13.1875,13.650000095367432L13.1875,13.649900105367431Q13.2367356,13.649900075367432,13.2850256,13.640294645367431Q13.333314900000001,13.630689205367432,13.378803300000001,13.611847455367432Q13.4242911,13.59300571536743,13.465229,13.56565174536743Q13.506167399999999,13.538297775367433,13.5409822,13.50348275536743Q13.575797099999999,13.468667745367432,13.6031513,13.427729635367431Q13.6305051,13.386791525367432,13.6493468,13.341303525367431Q13.668189,13.295815545367432,13.677794500000001,13.247525744367431Q13.687399899999999,13.199235949367432,13.687399899999999,13.150000095367432Q13.687399899999999,13.10076424136743,13.677794500000001,13.052474446367432Q13.668189,13.004184645367431,13.6493468,12.958696665367432Q13.6305051,12.913208665367431,13.6031513,12.872270555367432Q13.575797099999999,12.831332445367432,13.5409822,12.796517435367432Q13.506167399999999,12.76170241536743,13.465229,12.734348475367431Q13.4242911,12.706994505367431,13.378803300000001,12.688152755367431Q13.333314900000001,12.669310985367431,13.2850256,12.659705545367432Q13.2367356,12.650100115367431,13.1875,12.650100085367432L13.1875,12.650000095367432L9.25,12.650000095367432L9.25,12.650100085367432Q9.200764146,12.650100115367431,9.152474351,12.659705545367432Q9.10418455,12.669310985367431,9.05869657,12.688152735367431Q9.01320857,12.706994475367432,8.97227046,12.734348445367432Q8.93133235,12.76170241536743,8.89651734,12.796517435367432Q8.86170232,12.831332445367432,8.83434838,12.872270555367432Q8.80699441,12.913208665367431,8.78815266,12.958696665367432Q8.76931089,13.004184645367431,8.75970545,13.052474446367432Q8.75010002,13.10076424136743,8.75009999,13.150000095367432Q8.75010002,13.199235949367432,8.75970545,13.247525744367431Q8.76931089,13.295815545367432,8.78815264,13.341303525367431Q8.80699438,13.386791525367432,8.83434835,13.427729635367431Q8.86170232,13.468667745367432,8.89651734,13.50348275536743Q8.93133235,13.538297775367433,8.97227046,13.565651715367432Q9.01320857,13.593005685367432,9.05869657,13.611847435367432Q9.10418455,13.630689205367432,9.152474351,13.640294645367431Q9.200764146,13.649900075367432,9.25,13.649900105367431L9.25,13.650000095367432Z" fill-rule="evenodd" fill="#575757" fill-opacity="1" style="mix-blend-mode:passthrough"/><path d="M9.25,15.30000114440918L11.21875,15.30000114440918L11.21875,15.299901154409179Q11.2679858,15.29990112440918,11.3162756,15.29029569440918Q11.3645654,15.28069025440918,11.4100533,15.26184850440918Q11.4555411,15.243006764409179,11.4964795,15.215652794409179Q11.5374177,15.18829882440918,11.5722327,15.153483804409179Q11.6070476,15.11866879440918,11.6344018,15.077730684409179Q11.6617556,15.03679257440918,11.6805973,14.99130457440918Q11.699439,14.94581659440918,11.709044500000001,14.89752679340918Q11.718649899999999,14.84923699840918,11.7186501,14.80000114440918Q11.718649899999999,14.750765290409179,11.709044500000001,14.70247549540918Q11.699439,14.654185694409179,11.6805971,14.60869771440918Q11.6617556,14.56320971440918,11.6344016,14.52227160440918Q11.6070476,14.48133349440918,11.5722327,14.44651848440918Q11.5374177,14.411703464409179,11.4964795,14.38434952440918Q11.4555411,14.35699555440918,11.4100533,14.33815380440918Q11.3645654,14.31931203440918,11.3162756,14.30970659440918Q11.2679858,14.30010116440918,11.21875,14.30010113440918L11.21875,14.30000114440918L9.25,14.30000114440918L9.25,14.30010113440918Q9.200764146,14.30010116440918,9.152474351,14.30970659440918Q9.10418455,14.31931203440918,9.05869657,14.33815378440918Q9.01320857,14.35699552440918,8.97227046,14.38434949440918Q8.93133235,14.411703464409179,8.89651734,14.44651848440918Q8.86170232,14.48133349440918,8.83434838,14.52227160440918Q8.80699441,14.56320971440918,8.78815266,14.60869771440918Q8.76931089,14.654185694409179,8.75970545,14.70247549540918Q8.75010002,14.750765290409179,8.75009999,14.80000114440918Q8.75010002,14.84923699840918,8.75970545,14.89752679340918Q8.76931089,14.94581659440918,8.78815264,14.99130457440918Q8.80699438,15.03679257440918,8.83434835,15.077730684409179Q8.86170232,15.11866879440918,8.89651734,15.153483804409179Q8.93133235,15.18829882440918,8.97227046,15.21565276440918Q9.01320857,15.24300673440918,9.05869657,15.26184848440918Q9.10418455,15.28069025440918,9.152474351,15.29029569440918Q9.200764146,15.29990112440918,9.25,15.299901154409179L9.25,15.30000114440918Z" fill-rule="evenodd" fill="#575757" fill-opacity="1" style="mix-blend-mode:passthrough"/><path d="M8.75,10.950000286102295L8.75,8.200000286102295Q8.75000003,8.150754586102295,8.7596074,8.102455132102294Q8.76921478,8.054155676102296,8.78806031,8.008658586102294Q8.80690581,7.963161496102295,8.83426523,7.922215226102295Q8.86162469,7.881268916102295,8.89644665,7.846446936102295Q8.93126863,7.811624976102295,8.97221491,7.784265546102295Q9.01316121,7.756906096102295,9.0586583,7.738060566102295Q9.10415539,7.719215036102295,9.152454846,7.709607686102295Q9.2007543,7.700000316102295,9.25,7.700000286102295L13.1875002,7.700000286102295Q13.236745599999999,7.700000316102295,13.2850451,7.709607686102295Q13.333344499999999,7.719215066102295,13.378841399999999,7.738060596102295Q13.424338299999999,7.756906096102295,13.4652853,7.784265516102295Q13.5062313,7.811624976102295,13.5410533,7.846446936102295Q13.5758753,7.881268916102295,13.6032343,7.922215196102295Q13.6305943,7.963161496102295,13.6494398,8.008658586102294Q13.6682854,8.054155676102296,13.677892700000001,8.102455132102294Q13.6875,8.150754586102295,13.6875,8.200000286102295L13.6875,10.950000286102295Q13.6875,10.999245686102295,13.677892700000001,11.047544986102295Q13.6682854,11.095844486102294,13.649439300000001,11.141341686102296Q13.6305938,11.186838586102295,13.6032343,11.227785086102294Q13.5758753,11.268731586102295,13.5410533,11.303553586102295Q13.5062313,11.338375286102295,13.4652848,11.365734786102294Q13.424338299999999,11.393094086102295,13.378841399999999,11.411939886102296Q13.333344499999999,11.430785386102295,13.2850451,11.440392986102296Q13.236745599999999,11.450000286102295,13.1875002,11.450000486102295L9.25,11.450000486102295Q9.2007543,11.450000286102295,9.152454846,11.440392986102296Q9.10415539,11.430785386102295,9.0586583,11.411939886102296Q9.01316121,11.393094086102295,8.97221494,11.365734786102294Q8.93126863,11.338375286102295,8.89644665,11.303553586102295Q8.86162469,11.268731586102295,8.83426526,11.227785086102294Q8.80690581,11.186838586102295,8.78806028,11.141341686102296Q8.76921475,11.095844486102294,8.7596074,11.047544986102295Q8.75000003,10.999245686102295,8.75,10.950000286102295ZM9.75,8.700000286102295L9.75,10.450000486102295L12.6875002,10.450000486102295L12.6875002,8.700000286102295L9.75,8.700000286102295Z" fill="#575757" fill-opacity="1" style="mix-blend-mode:passthrough"/></svg>