<svg xmlns="http://www.w3.org/2000/svg" xmlns:xlink="http://www.w3.org/1999/xlink" fill="none" version="1.1" width="22" height="22" viewBox="0 0 22 22"><ellipse cx="11" cy="11.000000953674316" rx="11" ry="11.000000953674316" fill="#095AC3" fill-opacity="1"/><path d="M16.5,15.45L16.5,5.55000001Q16.5,5.11177684,16.1848106,4.80358918Q15.8743238,4.49999994,15.4374981,4.49999994L7.5625,4.5Q7.12568113,4.5,6.81519349,4.8035879Q6.5,5.11177714,6.5,5.55000001L6.5,15.45Q6.5,15.888229,6.8151955300000004,16.196417Q7.12568177,16.5,7.5625,16.5L15.4375,16.5Q15.8743248,16.5,16.184809700000002,16.196415000000002Q16.5,15.888229,16.5,15.45ZM15.4374981,5.49999997Q15.5,5.49999997,15.5,5.55000001L15.5,15.45Q15.5,15.5,15.4375,15.5L7.5625,15.5Q7.5,15.5,7.5,15.45L7.5,5.55000001Q7.5,5.5,7.5625,5.5L15.4374981,5.49999997Z" fill-rule="evenodd" fill="#FFFFFF" fill-opacity="1" style="mix-blend-mode:passthrough"/><path d="M9.25,12.650000095367432L13.1875,12.650000095367432L13.1875,12.649900105367431Q13.2367356,12.649900075367432,13.2850256,12.640294645367431Q13.333314900000001,12.630689205367432,13.378803300000001,12.611847455367432Q13.4242911,12.59300571536743,13.465229,12.56565174536743Q13.506167399999999,12.538297775367433,13.5409822,12.50348275536743Q13.575797099999999,12.468667745367432,13.6031513,12.427729635367431Q13.6305051,12.386791525367432,13.6493468,12.341303525367431Q13.668189,12.295815545367432,13.677794500000001,12.247525744367431Q13.687399899999999,12.199235949367432,13.687399899999999,12.150000095367432Q13.687399899999999,12.10076424136743,13.677794500000001,12.052474446367432Q13.668189,12.004184645367431,13.6493468,11.958696665367432Q13.6305051,11.913208665367431,13.6031513,11.872270555367432Q13.575797099999999,11.831332445367432,13.5409822,11.796517435367432Q13.506167399999999,11.76170241536743,13.465229,11.734348475367431Q13.4242911,11.706994505367431,13.378803300000001,11.688152755367431Q13.333314900000001,11.669310985367431,13.2850256,11.659705545367432Q13.2367356,11.650100115367431,13.1875,11.650100085367432L13.1875,11.650000095367432L9.25,11.650000095367432L9.25,11.650100085367432Q9.200764146,11.650100115367431,9.152474351,11.659705545367432Q9.10418455,11.669310985367431,9.05869657,11.688152735367431Q9.01320857,11.706994475367432,8.97227046,11.734348445367432Q8.93133235,11.76170241536743,8.89651734,11.796517435367432Q8.86170232,11.831332445367432,8.83434838,11.872270555367432Q8.80699441,11.913208665367431,8.78815266,11.958696665367432Q8.76931089,12.004184645367431,8.75970545,12.052474446367432Q8.75010002,12.10076424136743,8.75009999,12.150000095367432Q8.75010002,12.199235949367432,8.75970545,12.247525744367431Q8.76931089,12.295815545367432,8.78815264,12.341303525367431Q8.80699438,12.386791525367432,8.83434835,12.427729635367431Q8.86170232,12.468667745367432,8.89651734,12.50348275536743Q8.93133235,12.538297775367433,8.97227046,12.565651715367432Q9.01320857,12.593005685367432,9.05869657,12.611847435367432Q9.10418455,12.630689205367432,9.152474351,12.640294645367431Q9.200764146,12.649900075367432,9.25,12.649900105367431L9.25,12.650000095367432Z" fill-rule="evenodd" fill="#FFFFFF" fill-opacity="1" style="mix-blend-mode:passthrough"/><path d="M9.25,14.300000190734863L11.21875,14.300000190734863L11.21875,14.299900200734863Q11.2679858,14.299900170734864,11.3162756,14.290294740734863Q11.3645654,14.280689300734863,11.4100533,14.261847550734863Q11.4555411,14.243005810734862,11.4964795,14.215651840734862Q11.5374177,14.188297870734864,11.5722327,14.153482850734862Q11.6070476,14.118667840734863,11.6344018,14.077729730734863Q11.6617556,14.036791620734864,11.6805973,13.991303620734863Q11.699439,13.945815640734864,11.709044500000001,13.897525839734863Q11.718649899999999,13.849236044734864,11.7186501,13.800000190734863Q11.718649899999999,13.750764336734862,11.709044500000001,13.702474541734864Q11.699439,13.654184740734863,11.6805971,13.608696760734864Q11.6617556,13.563208760734863,11.6344016,13.522270650734864Q11.6070476,13.481332540734863,11.5722327,13.446517530734864Q11.5374177,13.411702510734862,11.4964795,13.384348570734863Q11.4555411,13.356994600734863,11.4100533,13.338152850734863Q11.3645654,13.319311080734863,11.3162756,13.309705640734864Q11.2679858,13.300100210734863,11.21875,13.300100180734864L11.21875,13.300000190734863L9.25,13.300000190734863L9.25,13.300100180734864Q9.200764146,13.300100210734863,9.152474351,13.309705640734864Q9.10418455,13.319311080734863,9.05869657,13.338152830734863Q9.01320857,13.356994570734864,8.97227046,13.384348540734864Q8.93133235,13.411702510734862,8.89651734,13.446517530734864Q8.86170232,13.481332540734863,8.83434838,13.522270650734864Q8.80699441,13.563208760734863,8.78815266,13.608696760734864Q8.76931089,13.654184740734863,8.75970545,13.702474541734864Q8.75010002,13.750764336734862,8.75009999,13.800000190734863Q8.75010002,13.849236044734864,8.75970545,13.897525839734863Q8.76931089,13.945815640734864,8.78815264,13.991303620734863Q8.80699438,14.036791620734864,8.83434835,14.077729730734863Q8.86170232,14.118667840734863,8.89651734,14.153482850734862Q8.93133235,14.188297870734864,8.97227046,14.215651810734864Q9.01320857,14.243005780734864,9.05869657,14.261847530734864Q9.10418455,14.280689300734863,9.152474351,14.290294740734863Q9.200764146,14.299900170734864,9.25,14.299900200734863L9.25,14.300000190734863Z" fill-rule="evenodd" fill="#FFFFFF" fill-opacity="1" style="mix-blend-mode:passthrough"/><path d="M8.75,9.950000047683716L8.75,7.200000047683716Q8.75000003,7.150754347683716,8.7596074,7.102454893683716Q8.76921478,7.054155437683716,8.78806031,7.008658347683716Q8.80690581,6.963161257683716,8.83426523,6.922214987683716Q8.86162469,6.881268677683716,8.89644665,6.8464466976837155Q8.93126863,6.811624737683716,8.97221491,6.784265307683716Q9.01316121,6.756905857683716,9.0586583,6.738060327683716Q9.10415539,6.7192147976837155,9.152454846,6.709607447683716Q9.2007543,6.700000077683716,9.25,6.700000047683716L13.1875002,6.700000047683716Q13.236745599999999,6.700000077683716,13.2850451,6.709607447683716Q13.333344499999999,6.719214827683716,13.378841399999999,6.7380603576837155Q13.424338299999999,6.756905857683716,13.4652853,6.784265277683716Q13.5062313,6.811624737683716,13.5410533,6.8464466976837155Q13.5758753,6.881268677683716,13.6032343,6.922214957683716Q13.6305943,6.963161257683716,13.6494398,7.008658347683716Q13.6682854,7.054155437683716,13.677892700000001,7.102454893683716Q13.6875,7.150754347683716,13.687500499999999,7.200000047683716L13.687500499999999,9.950000047683716Q13.6875,9.999245447683716,13.677892700000001,10.047544747683716Q13.6682854,10.095844247683715,13.649439300000001,10.141341447683716Q13.6305938,10.186838347683716,13.6032343,10.227784847683715Q13.5758753,10.268731347683715,13.5410533,10.303553347683716Q13.5062313,10.338375047683716,13.4652848,10.365734547683715Q13.424338299999999,10.393093847683716,13.378841399999999,10.411939647683717Q13.333344499999999,10.430785147683716,13.2850451,10.440392747683717Q13.236745599999999,10.450000047683716,13.1875002,10.450000247683716L9.25,10.450000247683716Q9.2007543,10.450000047683716,9.152454846,10.440392747683717Q9.10415539,10.430785147683716,9.0586583,10.411939647683717Q9.01316121,10.393093847683716,8.97221494,10.365734547683715Q8.93126863,10.338375047683716,8.89644665,10.303553347683716Q8.86162469,10.268731347683715,8.83426526,10.227784847683715Q8.80690581,10.186838347683716,8.78806028,10.141341447683716Q8.76921475,10.095844247683715,8.7596074,10.047544747683716Q8.75000003,9.999245447683716,8.75,9.950000047683716ZM9.75,7.700000047683716L9.75,9.450000047683716L12.6875,9.450000047683716L12.6875,7.700000047683716L9.75,7.700000047683716Z" fill="#FFFFFF" fill-opacity="1" style="mix-blend-mode:passthrough"/></svg>