<svg xmlns="http://www.w3.org/2000/svg" xmlns:xlink="http://www.w3.org/1999/xlink" fill="none" version="1.1" width="22" height="23" viewBox="0 0 22 23"><defs><filter id="master_svg0_54_0712" filterUnits="objectBoundingBox" color-interpolation-filters="sRGB" x="0" y="0" width="1" height="1.0454545415137428"><feFlood flood-opacity="0" result="BackgroundImageFix"/><feColorMatrix in="SourceAlpha" type="matrix" values="0 0 0 0 0 0 0 0 0 0 0 0 0 0 0 0 0 0 127 0"/><feOffset dy="1" dx="0"/><feGaussianBlur stdDeviation="0"/><feColorMatrix type="matrix" values="0 0 0 0 0.9019607901573181 0 0 0 0 0.9019607901573181 0 0 0 0 0.9019607901573181 0 0 0 1 0"/><feBlend mode="normal" in2="BackgroundImageFix" result="effect1_dropShadow"/><feBlend mode="normal" in="SourceGraphic" in2="effect1_dropShadow" result="shape"/></filter></defs><ellipse cx="11.000000953674316" cy="11.000000953674316" rx="11.000000953674316" ry="11.000000953674316" fill="#FFFFFF" fill-opacity="1" filter="url(#master_svg0_54_0712)"/><g transform="matrix(0.9598044753074646,0.2806694209575653,-0.2806694209575653,0.9598044753074646,1.1092555099312449,-1.7454950521278079)"><path d="M18.030274640625002,7.1501503L17.785713640624998,7.1522899C16.130228040625,7.1522899,15.371987340625,6.9377675,15.288980440625,6.8228178C15.288980440625,6.6575761,15.299076040625,6.4779406,15.313717840625,6.2885637C15.324846240625,6.197777,15.338364640625,6.1079447,15.351796140625,6.0203965C15.375351940625,5.8703289000000005,15.396635040625,5.7281811000000005,15.407912240625,5.5945311C15.492038740625,4.5818652,15.296862640625,3.74446958,14.872889540625,3.29559705C14.690110240625,3.10295469,14.478108840625,3,14.258224940625,3C14.251494840625,3,13.548276940625,3.0043934695,13.235409240625,3.34811515C13.118692840625,3.47517544,13.068187240625,3.63163066,13.087285540625,3.79915571C13.100804840624999,3.9141919,13.206244440625,4.9452996,12.957197140625,5.7532985C12.589544340625,6.4145839,11.540812540625,7.5688205,10.765715140625,8.2595L10.663492640625,7.9208078C10.642180440625,7.8496475,10.591703940624999,7.7894692,10.525494140625,7.7544098C10.458251040625,7.7193794,10.378521640625,7.7106786,10.306762240625,7.7314019L6.854487340625,8.7265825C6.703087124625,8.7703142,6.615594163625,8.9257574,6.660433080625,9.0735121L8.690537440625,15.798513C8.726402540625,15.921094,8.840816040625,15.999999,8.965295040625,15.999999C8.992275240625,15.999999,9.019195840625,15.99552,9.046057740624999,15.987919L12.499543140625,14.99606C12.572483540625,14.97525,12.634177240625,14.92701,12.670071640625,14.8614C12.707028840625,14.796857,12.714910540624999,14.719049,12.693597840625,14.647975L12.224904040624999,13.094898C12.555717940625,13.055532,13.054225940624999,13.035819,13.745637940625,13.095563L14.639634140624999,13.170076C15.247507140625,13.220514,15.779135740625,13.264245,16.125741940624998,13.308034C16.255770640625002,13.323296,16.401621840624998,13.335434,16.551899940625,13.335434C17.268638640625,13.335434,17.754277640625,13.101113,17.920318640625,12.6697845C17.946088640625,12.600791,17.966249640625,12.5307865,17.981952640625,12.4628916C18.436211640625,12.2428198,18.737950640625,11.8082829,18.765962640625,11.3199854C18.769385640625,11.2750978,18.770449640625,11.2291412,18.768204640625,11.182086C19.084494640625,10.9412622,19.280793640625,10.5821924,19.302103640625,10.191329C19.312200640625,10.042417499999999,19.295374640625,9.8935928,19.252781640625003,9.7479191C19.509589640625002,9.4611373,19.648681640625,9.104235599999999,19.648681640625,8.7231998C19.648712640625,7.8562655,18.925303640625,7.1501503,18.030274640625002,7.1501503ZM9.160532040625,15.371576L7.291864810625,9.1841245L10.193502440625,8.3488975L10.306439840625,8.723228500000001C10.297083140625,8.767422700000001,10.297879740625,8.813870399999999,10.311280740625,8.8590178L11.548459540625,12.9576349C11.562303540624999,13.004255,11.587424740625,13.04475,11.620071440625,13.077093L12.060988940625,14.538489L9.160532040625,15.371576ZM18.730069640625,9.468796300000001C18.638149640625002,9.549784200000001,18.610075640625,9.677856,18.659461640625,9.788383C18.714395640625,9.909894000000001,18.736800640625,10.033688099999999,18.729037640625002,10.158522600000001C18.714395640625,10.4244642,18.560750640625002,10.6663871,18.319614640624998,10.804345099999999C18.214175640625,10.8634243,18.159240640625,10.9806576,18.181614640625,11.0966177C18.193924640625,11.1632986,18.198410640625,11.2203255,18.192891640625,11.2816296C18.174886640624997,11.6067953,17.952817640625,11.888114,17.628647640624997,12.0008669C17.524359640625,12.0369968,17.451476640625,12.1279268,17.439139640625,12.2351885C17.430106640625,12.3150482,17.411097640625,12.3961239,17.381962640624998,12.4771109C17.274280640625,12.7540369,16.719095640625,12.774847,16.551932340625,12.774847C16.426331540625,12.774847,16.304066640625003,12.7638922,16.197534540625,12.7518406C15.846470840625,12.706953,15.305840540625,12.6631641,14.687841440625,12.6117153L13.797267940625,12.5373182C13.477581940625,12.5087614,13.180419940625,12.4945126,12.915668440625,12.4945126C12.598433940625,12.4945126,12.312340740625,12.5138197,12.060459140625,12.5498629L10.945132740624999,8.8540463C11.779826640625,8.1535096,13.028605940624999,6.796746300000001,13.483191040625,5.968946900000001C13.789415840625,5.003336,13.672788640625,3.8648806799999997,13.658206440625001,3.72909135C13.692891140625001,3.6491731400000003,14.045135540625001,3.5605253599999998,14.258229240624999,3.5605253599999998C14.310977440624999,3.5605253599999998,14.382737640624999,3.60324472,14.450040340625,3.67547494C14.690114040625,3.92942178,14.917731240625,4.5555893,14.835935640625,5.5496134999999995C14.825780840625,5.6700542,14.805590640625,5.8013055,14.784278840625,5.9371235C14.770848240625,6.0291238,14.756236040625,6.1232336,14.742805440625,6.2316229C14.724857340625,6.4495265,14.714761740625,6.6432385,14.714761740625,6.8140011000000005C14.712518740625,6.913660999999999,14.738288840625,7.0614448,14.877379440625,7.2004995C15.300261540625,7.6241398,16.692175640625003,7.7128453,17.785746640625,7.7128453C17.940510640625,7.7128453,18.038068640625,7.7106771,18.038068640625,7.7106771C18.609016640625,7.7106771,19.074492640625,8.1648684,19.074492640625,8.7231698C19.074460640625,9.007813500000001,18.952195640625,9.2717314,18.730069640625,9.468796300000001Z" fill="#575757" fill-opacity="1" style="mix-blend-mode:passthrough"/><path d="M19.417810640625,9.7859116Q19.798682640625,9.3225994,19.798682640625,8.7231994Q19.798705640625002,8.00916,19.279743640625,7.5040803Q18.761961640625,7.0001502,18.030275640625,7.0001502L17.784400640625,7.002296Q16.687885640624998,7.0022902,15.972393040625,6.8827119Q15.543297740625,6.8109984,15.439547540625,6.7566748Q15.442669840625,6.5675397,15.463009840625,6.3035087999999995Q15.474932640625,6.206932999999999,15.500061040625,6.043144Q15.544457440625,5.7603147,15.557381640625,5.6071428999999995Q15.695231440625,3.94778329,14.981937440625,3.19259904Q14.656878440625,2.84999999,14.258225440625,2.84999999Q13.485977140625,2.84999999,13.124482140625,3.24714474Q12.901104940625,3.4903155,12.938251040625001,3.8161463700000002Q13.063807040625,4.8845129,12.818426140625,5.6941497000000005Q12.253118540625,6.7024662,10.840984340624999,7.9897532L10.807094540625,7.8774667Q10.755955240625,7.7067122,10.595688340625,7.6218476Q10.435131040625,7.5382009,10.265144840625,7.5872912L6.812939000625,8.582451299999999Q6.640064918425,8.6323862,6.553018852625,8.7877049Q6.464744220625,8.9452162,6.516896890625,9.1170712L8.546937840625,15.841863Q8.637087840625,16.149999,8.965295040625,16.149999Q9.024186140625,16.149999,9.086903540625,16.13225L12.540949840625,15.140232Q12.715798340625,15.090348,12.801665740625001,14.933393Q12.889698940625,14.779708,12.837276940625,14.604891L12.421176940625,13.226089Q12.985307740625,13.180423,13.732724640625001,13.245006L14.627175340625,13.319558L14.671203640625,13.323211Q15.771911640625,13.414525,16.106940240625,13.456851Q16.350413340625,13.485435,16.551899940625,13.485435Q17.767061640625002,13.485435,18.060304640625,12.7236729Q18.088663640625,12.6477613,18.110786640625,12.5658274Q18.867618640625,12.1669836,18.915716640625,11.3285761Q18.918600640625,11.2909145,18.919232640624998,11.2536135Q19.416930640625,10.8405318,19.451881640625,10.199495800000001Q19.465953640625003,9.9921303,19.417810640625,9.7859116ZM19.070506640625,7.719069Q19.498702640624998,8.1358085,19.498681640625,8.7231946Q19.498681640625,9.2484641,19.141036640625,9.647853399999999L19.085407640625,9.7099762L19.108809640624997,9.7900147Q19.165762640624997,9.9848008,19.152327640625,10.1831627Q19.122865640625,10.723516,18.677336640625,11.0627432L18.614618640625,11.1104965L18.618374640625,11.1892357Q18.621115640625,11.2466908,18.616208640625,11.3113947Q18.576228640625,12.0083113,17.916553640625,12.327899L17.851980640625,12.3591833L17.835810640625,12.4290905Q17.812572640625,12.529563,17.780333640625003,12.6158972Q17.561087640625,13.185434,16.551899940625,13.185434Q16.367964740625,13.185434,16.144542740625,13.159217Q15.803141640625,13.116085,14.696006740625,13.024238L14.674056040625,13.022417L14.652092940625,13.020595L13.758550140625001,12.9461203Q12.858954940625,12.8683882,12.207179040625,12.9459486L12.029647340625,12.9670753L12.549918640625,14.69106Q12.565330040625,14.742454,12.538477440625,14.789407Q12.512832140625001,14.836284,12.458136540625,14.851889L9.005211840625,15.843587Q8.982555340625,15.849998,8.965295040625,15.849998Q8.861889640625,15.849998,8.834137240625001,15.755165L6.803969260625,9.029953500000001Q6.788929740625,8.9803948,6.814722220625,8.9343724Q6.841584370625,8.886441699999999,6.896035700625,8.8707137L10.348379840625,7.8755126Q10.403010640625,7.859736,10.455299840624999,7.886972Q10.504593640625,7.913074,10.519890540625,7.964149L10.690026740625001,8.5278583L10.865506640625,8.3714895Q12.466201340625,6.945132,13.088298340625,5.8261862L13.095921540625,5.8124743L13.100542540625,5.7974815Q13.370307940625,4.9222659,13.236320540625,3.78216505Q13.214686840625,3.59240496,13.346337340625,3.44908556Q13.618575540624999,3.15000001,14.258225440625,3.15000001Q14.527974140625,3.1500000200000002,14.763842540625,3.3985959Q15.385172840625,4.0564169,15.258443840625,5.5819194Q15.246421840625,5.7243955,15.203531240625,5.9976500999999995Q15.177284240625,6.168726700000001,15.164832140625,6.2703137L15.164423940625,6.273649900000001L15.164164540625,6.2770009Q15.138979940625,6.6027336000000005,15.138979940625,6.822818L15.138979940625,6.8713155L15.167372740625,6.9106331Q15.450194340625,7.30229,17.787025640625,7.3022842L18.030275640625,7.3001504Q18.640073640624998,7.3001504,19.070506640625,7.719069ZM14.559403440625001,3.57281011L14.559042440625,3.5724281700000002Q14.407824540625,3.41052538,14.258229240624999,3.41052538Q14.072495440625,3.41052538,13.852200540624999,3.47002855Q13.574577340625,3.54501641,13.520606540625,3.66937268L13.504833240625,3.7057160700000003L13.509063740624999,3.74510854Q13.640143440625,4.9656695,13.344628840624999,5.9095743Q13.025269540625,6.4850814,12.244805340625,7.3593259Q11.503893840625,8.189265299999999,10.848702940625,8.739149600000001L10.772961140625,8.802717699999999L11.954099140625,12.71661L12.081707040625,12.6983509Q12.457945840625001,12.6445131,12.915668440625,12.6445131Q13.311387540624999,12.6445131,13.784780940625,12.6867981L14.675397840625,12.761199Q14.715719240625,12.7645559,14.800227140625,12.7715788Q15.854578940625,12.859211,16.180671740625,12.9008894Q16.392441740625,12.9248476,16.551932340625,12.9248476Q17.368801640625,12.9248476,17.521765640625,12.5314732L17.522458640625,12.5296888L17.523107640625,12.5278883Q17.572527640624998,12.3905134,17.588156640625,12.2523289Q17.597582640625,12.1703749,17.677924640625,12.1425419Q18.306345640625,11.9239664,18.342523640625,11.2924032Q18.351337640624998,11.1897211,18.328898640625,11.0682001Q18.311987640625,10.9805603,18.394102640625,10.934543099999999Q18.850928640625,10.6731868,18.878748640625,10.1678329Q18.892881640625,9.9405723,18.796412640625,9.727190499999999Q18.758924640625,9.6432891,18.829615640625,9.5810037Q19.224436640625,9.2307291,19.224492640625,8.7231698Q19.224492640625,8.2413597,18.875185640625,7.9002438Q18.527466640625,7.5606775,18.038069640625,7.5606775L18.036402640625,7.5606775L18.034736640625,7.5607142Q17.938843640625002,7.5628452,17.785746640625,7.5628452Q15.451019240625,7.5628452,14.983431840625,7.09442Q14.861237540625,6.9722569,14.864723240625,6.817376400000001L14.864761340625,6.8156888L14.864761340625,6.8140011000000005Q14.864761340625,6.5793622,14.892043140625,6.2470472Q14.902472540625,6.1633863,14.924120940625,6.0170746Q14.929888740625,5.978091,14.932465540625,5.960376500000001Q14.974329940625,5.6935782,14.985430740625,5.5619152Q15.101809540625,4.1476161000000005,14.559786340625,3.5732159L14.559403440625001,3.57281011ZM14.258229240624999,3.71052539Q14.277675640624999,3.71052539,14.340297240625,3.7777316L14.341038740624999,3.77852172Q14.791921640625,4.25546,14.686441440625,5.5373123Q14.676291440625,5.657685799999999,14.636092640625,5.9138706Q14.633098140625,5.9343231,14.627350840624999,5.9731653Q14.604790640625,6.1256406000000005,14.593944040625,6.2131774L14.593564540625,6.2162368L14.593312240625,6.2193096Q14.564853640625,6.5648177,14.564762140625,6.8124025Q14.559095840625,7.0944033,14.771327040625,7.3065796Q15.326598140625,7.8628454,17.785746640625,7.8628454Q17.940834640625,7.8628454,18.039682640625,7.8606787Q18.405854640625,7.8612361,18.665585640625,8.114877199999999Q18.924492640624997,8.3677135,18.924492640624997,8.7231698Q18.924451640625,9.0958228,18.630522640625,9.3565898Q18.394967640624998,9.564128400000001,18.522511640624998,9.849575Q18.588836640625,9.9962883,18.579326640625,10.1492128Q18.560350640625,10.4938035,18.245126640625,10.674147099999999Q17.976386640625,10.824720899999999,18.034331640625,11.1250362Q18.049152640625,11.205348,18.043496640625,11.2681828L18.043265640625002,11.2707558L18.043122640625,11.2733374Q18.019151640624997,11.7062283,17.579370640625,11.8591919Q17.321107640625,11.9486656,17.290121640625,12.2180481Q17.278485640625,12.3209429,17.241543640625,12.4243097Q17.161208640625,12.6248474,16.551932340625,12.6248474Q16.409360840625,12.6248474,16.214396440625002,12.6027908Q15.886042640625,12.5607929,14.825076140625,12.4726105Q14.742422140625,12.4657412,14.700285940625,12.4622335L13.809754840625,12.3878393Q13.324756140625,12.3445129,12.915668440625,12.3445129Q12.512567540625,12.3445129,12.167318840625,12.3847675L11.117144140625001,8.9048429Q11.755644340625,8.3577394,12.468600740625,7.5591145Q13.280522840625,6.649631299999999,13.614670740625,6.0411489L13.621736040624999,6.0282826L13.626173540625,6.0142907999999995Q13.935608340625,5.0385573,13.815982340625,3.79778141Q13.861527940624999,3.7782601099999997,13.930428940625,3.75964952Q14.112298440625,3.71052539,14.258229240624999,3.71052539ZM9.059718340625,15.556597L12.102398440624999,14.68266L12.248503640625,14.640695L11.752682240624999,12.997323L11.725641240625,12.9705334Q11.701728840625,12.9468431,11.692060040625,12.9142876L10.455079540625,8.816334699999999Q10.446308640625,8.7867856,10.453186940625,8.754297300000001L10.461147740625,8.716697199999999L10.294330840625,8.1637836L7.104334980625,9.0820136L9.059718340625,15.556597ZM11.873473640625,14.436284L9.261345340625,15.186555L7.479394730625,9.2862349L10.092673740625,8.5340109L10.152890940625,8.7336001Q10.142960340625,8.8190894,10.167481440625,8.901701L11.404858540625,13.000981Q11.430073740625,13.085896,11.486302340625,13.153026L11.873473640625,14.436284Z" fill-rule="evenodd" fill="#575757" fill-opacity="1"/></g></svg>