<svg xmlns="http://www.w3.org/2000/svg" xmlns:xlink="http://www.w3.org/1999/xlink" fill="none" version="1.1" width="22" height="23" viewBox="0 0 22 23"><defs><filter id="master_svg0_44_5283" filterUnits="objectBoundingBox" color-interpolation-filters="sRGB" x="0" y="0" width="1" height="1.0454545415137428"><feFlood flood-opacity="0" result="BackgroundImageFix"/><feColorMatrix in="SourceAlpha" type="matrix" values="0 0 0 0 0 0 0 0 0 0 0 0 0 0 0 0 0 0 127 0"/><feOffset dy="1" dx="0"/><feGaussianBlur stdDeviation="0"/><feColorMatrix type="matrix" values="0 0 0 0 0.9019607901573181 0 0 0 0 0.9019607901573181 0 0 0 0 0.9019607901573181 0 0 0 1 0"/><feBlend mode="normal" in2="BackgroundImageFix" result="effect1_dropShadow"/><feBlend mode="normal" in="SourceGraphic" in2="effect1_dropShadow" result="shape"/></filter></defs><ellipse cx="11.000000953674316" cy="11.000000953674316" rx="11.000000953674316" ry="11.000000953674316" fill="#FFFFFF" fill-opacity="1" filter="url(#master_svg0_44_5283)"/><path d="M12.7486947,16.844439Q13.5,16.168264,13.5,15.200001L13.5,6.8000001Q13.5,5.8317343600000004,12.7486947,5.15556034Q12.0202932,4.49999988,11,4.49999988Q9.97970665,4.5,9.2513054,5.15556034Q8.5,5.8317343,8.5,6.8000001L8.5,15.200001Q8.5,16.168264,9.25130528,16.844439Q9.97970736,17.5,11,17.5Q12.0202928,17.5,12.7486947,16.844439ZM12.5,6.8000001L12.5,15.200001Q12.5,15.722902,12.0797303,16.101145000000002Q11.6365576,16.5,11,16.5Q10.3634425,16.5,9.92026979,16.101145000000002Q9.5,15.722902,9.5,15.200001L9.5,6.8000001Q9.5,6.2770971,9.92026967,5.89885485Q10.3634424,5.5,11,5.49999988Q11.6365576,5.49999985,12.0797303,5.89885485Q12.5,6.2770972,12.5,6.8000001Z" fill-rule="evenodd" fill="#575757" fill-opacity="1" style="mix-blend-mode:passthrough"/><path d="M12.62679318,6.6672588600000005Q12.56554466,6.73595601,12.53277236,6.82195985Q12.5,6.907963686,12.5,7L12.5,9.86744Q12.50000003,9.9743583,12.54372674,10.0719264Q12.58745348,10.1694944,12.66725883,10.2406468L14.7261205,12.076273Q15.2013779,12.499999500000001,15.8629081,12.499999500000001Q16.5244381,12.499999500000001,16.999696,12.0762734Q17.5000005,11.630244300000001,17.5000005,10.986222Q17.5000005,10.3422093,16.9996967,9.8961518L13.33274114,6.62679318Q13.29598346,6.59402108,13.25353855,6.56904969Q13.21109366,6.54407835,13.16459265,6.52786738Q13.11809165,6.5116564,13.06932155,6.50482881Q13.020551441,6.49800122,12.971386448,6.50081944Q12.922221452,6.50363764,12.87455095,6.51599333Q12.82688046,6.52834898,12.7825364,6.54976726Q12.73819235,6.57118553,12.69887885,6.60084337Q12.65956533,6.63050121,12.62679318,6.6672588600000005ZM13.5,8.1156564L13.5,9.6433566L15.391603,11.329859299999999Q15.5824344,11.499999500000001,15.8629081,11.499999500000001Q16.1433821,11.499999500000001,16.3342147,11.3298588Q16.5000005,11.1820583,16.5000005,10.986222Q16.5000005,10.7903762,16.334214199999998,10.6425655L13.5,8.1156564Z" fill-rule="evenodd" fill="#575757" fill-opacity="1" style="mix-blend-mode:passthrough"/><path d="M9.3732066,15.3327408Q9.434455400000001,15.2640438,9.467227900000001,15.1780405Q9.5,15.092036199999999,9.5,15L9.5,12.1325595Q9.5,12.0256405,9.4562726,11.9280717Q9.4125452,11.8305032,9.332738899999999,11.7593508L7.2738516,9.923724733Q6.7986062,9.49999976,6.1370807,9.49999976Q5.47555813,9.49999976,5.0003007811,9.923726872Q4.5,10.36978516,4.5,11.0137872Q4.5,11.6577892,5.00029964783,12.1038463L8.667259,15.3732066Q8.7414944,15.439392999999999,8.8354075,15.4721327Q8.9293203,15.5048718,9.0286136,15.499180299999999Q9.1279068,15.4934883,9.217463500000001,15.450232Q9.3070202,15.4069757,9.3732066,15.3327408ZM8.5000002,13.884343900000001L8.5000002,12.3566451L6.6083739999999995,10.67014235Q6.4175436,10.49999976,6.1370807,10.49999976Q5.85661501,10.49999976,5.66578346,10.67014027Q5.5,10.81794947,5.5,11.0137872Q5.5,11.2096249,5.66578478,11.3574353L8.5000002,13.884343900000001Z" fill-rule="evenodd" fill="#575757" fill-opacity="1" style="mix-blend-mode:passthrough"/><path d="M10.50009999,7Q10.50010002,6.950764146,10.50970545,6.902474351Q10.51931089,6.85418455,10.53815264,6.80869657Q10.55699438,6.76320857,10.58434835,6.72227046Q10.61170232,6.68133235,10.64651734,6.64651734Q10.68133235,6.61170232,10.72227046,6.58434838Q10.76320857,6.55699441,10.80869657,6.53815266Q10.85418455,6.51931089,10.902474351,6.50970545Q10.950764146,6.50010002,11,6.50009999Q11.049235854,6.50010002,11.097525649,6.50970545Q11.14581545,6.51931089,11.19130343,6.53815264Q11.23679143,6.55699438,11.27772954,6.58434835Q11.31866765,6.61170232,11.35348266,6.64651734Q11.38829768,6.68133235,11.41565162,6.72227046Q11.44300559,6.76320857,11.46184734,6.80869657Q11.48068911,6.85418455,11.49029455,6.902474351Q11.49989998,6.950764146,11.49990001,7L11.5,7L11.5,8L11.49990001,8Q11.49989998,8.0492358,11.49029455,8.0975256Q11.48068911,8.1458154,11.46184736,8.1913034Q11.44300562,8.2367914,11.41565165,8.2777294Q11.38829768,8.3186675,11.35348266,8.3534826Q11.31866765,8.3882976,11.27772954,8.4156514Q11.23679143,8.4430053,11.19130343,8.4618472Q11.14581545,8.4806889,11.097525649,8.490294500000001Q11.049235854,8.499899899999999,11,8.4999Q10.950764146,8.499899899999999,10.902474351,8.490294500000001Q10.85418455,8.4806889,10.80869657,8.4618472Q10.76320857,8.4430053,10.72227046,8.4156514Q10.68133235,8.3882976,10.64651734,8.3534826Q10.61170232,8.3186675,10.58434838,8.2777295Q10.55699441,8.2367914,10.53815266,8.1913034Q10.51931089,8.1458154,10.50970545,8.0975256Q10.50010002,8.0492358,10.50009999,8L10.5,8L10.5,7L10.50009999,7Z" fill-rule="evenodd" fill="#575757" fill-opacity="1" style="mix-blend-mode:passthrough"/><path d="M10.50009999,15Q10.50010002,14.950764146,10.50970545,14.902474351Q10.51931089,14.85418455,10.53815264,14.80869657Q10.55699438,14.76320857,10.58434835,14.72227046Q10.61170232,14.68133235,10.64651734,14.64651734Q10.68133235,14.61170232,10.72227046,14.58434838Q10.76320857,14.55699441,10.80869657,14.53815266Q10.85418455,14.51931089,10.902474351,14.50970545Q10.950764146,14.50010002,11,14.50009999Q11.049235854,14.50010002,11.097525649,14.50970545Q11.14581545,14.51931089,11.19130343,14.53815264Q11.23679143,14.55699438,11.27772954,14.58434835Q11.31866765,14.61170232,11.35348266,14.64651734Q11.38829768,14.68133235,11.41565162,14.72227046Q11.44300559,14.76320857,11.46184734,14.80869657Q11.48068911,14.85418455,11.49029455,14.902474351Q11.49989998,14.950764146,11.49990001,15L11.5,15L11.5,16L11.49990001,16Q11.49989998,16.049235799999998,11.49029455,16.0975256Q11.48068911,16.1458154,11.46184736,16.1913034Q11.44300562,16.2367914,11.41565165,16.2777294Q11.38829768,16.3186675,11.35348266,16.3534826Q11.31866765,16.3882976,11.27772954,16.4156514Q11.23679143,16.4430053,11.19130343,16.4618472Q11.14581545,16.4806889,11.097525649,16.4902945Q11.049235854,16.4998999,11,16.4999Q10.950764146,16.4998999,10.902474351,16.4902945Q10.85418455,16.4806889,10.80869657,16.4618472Q10.76320857,16.4430053,10.72227046,16.4156514Q10.68133235,16.3882976,10.64651734,16.3534826Q10.61170232,16.3186675,10.58434838,16.2777295Q10.55699441,16.2367914,10.53815266,16.1913034Q10.51931089,16.1458154,10.50970545,16.0975256Q10.50010002,16.049235799999998,10.50009999,16L10.5,16L10.5,15L10.50009999,15Z" fill-rule="evenodd" fill="#575757" fill-opacity="1" style="mix-blend-mode:passthrough"/></svg>