<svg xmlns="http://www.w3.org/2000/svg" xmlns:xlink="http://www.w3.org/1999/xlink" fill="none" version="1.1" width="22" height="22" viewBox="0 0 22 22"><ellipse cx="11.000000953674316" cy="11.000000953674316" rx="11.000000953674316" ry="11.000000953674316" fill="#095AC3" fill-opacity="1"/><path d="M8.546446476948853,7.4535537000000005L10.646446556948852,9.5535536Q10.716772656948853,9.6238799,10.808658156948852,9.661940099999999Q10.900543656948852,9.7000003,10.999999956948852,9.7000003Q11.099456056948853,9.6999998,11.191341656948852,9.661940099999999Q11.283227156948852,9.6238794,11.353553556948853,9.5535536L13.453553456948853,7.4535537000000005Q13.523879756948853,7.3832273,13.561939956948851,7.291342Q13.600000156948852,7.1994562,13.600000156948852,7.1000001Q13.600000156948852,7.0005438,13.561939956948851,6.9086583Q13.523879756948853,6.8167727,13.453553456948853,6.7464467L11.353553556948853,4.64644662Q11.318731556948853,4.61162466,11.277785056948852,4.58426523Q11.236838856948852,4.55690581,11.191341656948852,4.53806031Q11.145844656948853,4.51921478,11.097545156948852,4.50960743Q11.049245556948852,4.50000006,10.999999756948853,4.50000003Q10.950753956948851,4.50000006,10.902454656948853,4.5096074Q10.854155056948853,4.51921478,10.808658156948852,4.53806031Q10.763160956948852,4.55690581,10.722214656948852,4.5842652Q10.681268456948853,4.61162466,10.646446556948852,4.64644662L8.546446476948853,6.7464467Q8.511624516948853,6.7812686,8.484265086948852,6.8222148Q8.456905666948852,6.8631611,8.438060166948853,6.908658Q8.419214636948853,6.9541552,8.409607286948852,7.002454800000001Q8.399999916948852,7.0507541,8.399999886948853,7.0999999Q8.399999916948852,7.1492457,8.409607256948853,7.1975453Q8.419214636948853,7.2458448,8.438060166948853,7.2913418Q8.456905666948852,7.3368389999999994,8.484265056948853,7.3777852Q8.511624516948853,7.4187317,8.546446476948853,7.4535537000000005ZM10.999999956948852,8.492893200000001L12.392893056948854,7.1000001L10.999999956948852,5.70710689L9.607106746948853,7.1000001L10.999999956948852,8.492893200000001Z" fill-rule="evenodd" fill="#FFFFFF" fill-opacity="1" style="mix-blend-mode:passthrough"/><path d="M12.446446333897706,11.653553986102295L14.546446413897705,13.753553886102296Q14.616772513897706,13.823880186102295,14.708658013897704,13.861940386102294Q14.800543513897704,13.900000586102294,14.899999813897704,13.900000586102294Q14.999455913897705,13.900000086102295,15.091341513897705,13.861940386102294Q15.183227013897705,13.823879686102295,15.253553413897706,13.753553886102296L17.353553313897706,11.653553986102295Q17.423879613897704,11.583227586102295,17.461939813897704,11.491342286102295Q17.500000013897704,11.399456486102295,17.500000013897704,11.300000386102294Q17.500000013897704,11.200544086102294,17.461939813897704,11.108658586102294Q17.423879613897704,11.016772986102294,17.353553313897706,10.946446986102295L15.253553413897706,8.846446906102296Q15.218731413897705,8.811624946102295,15.177784913897705,8.784265516102295Q15.136838713897705,8.756906096102295,15.091341513897705,8.738060596102295Q15.045844513897705,8.719215066102295,14.997545013897705,8.709607716102294Q14.949245413897705,8.700000346102295,14.899999613897705,8.700000316102296Q14.850753813897704,8.700000346102295,14.802454513897706,8.709607686102295Q14.754154913897706,8.719215066102295,14.708658013897704,8.738060596102295Q14.663160813897704,8.756906096102295,14.622214513897704,8.784265486102296Q14.581268313897706,8.811624946102295,14.546446413897705,8.846446906102296L12.446446333897706,10.946446986102295Q12.411624373897705,10.981268886102296,12.384264943897705,11.022215086102294Q12.356905523897705,11.063161386102294,12.338060023897706,11.108658286102294Q12.319214493897706,11.154155486102296,12.309607143897704,11.202455086102296Q12.299999773897705,11.250754386102294,12.299999743897706,11.300000186102295Q12.299999773897705,11.349245986102295,12.309607113897705,11.397545586102295Q12.319214493897706,11.445845086102295,12.338060023897706,11.491342086102295Q12.356905523897705,11.536839286102294,12.384264913897706,11.577785486102295Q12.411624373897705,11.618731986102295,12.446446333897706,11.653553986102295ZM14.899999813897704,12.692893486102296L16.292892913897706,11.300000386102294L14.899999813897704,9.907107176102295L13.507106603897705,11.300000386102294L14.899999813897704,12.692893486102296Z" fill-rule="evenodd" fill="#FFFFFF" fill-opacity="1" style="mix-blend-mode:passthrough"/><path d="M8.546446476948853,15.253553413897706L10.646446556948852,17.353553313897706Q10.716772656948853,17.423879613897704,10.808658156948852,17.461939813897704Q10.900543656948852,17.500000013897704,10.999999956948852,17.500000013897704Q11.099456056948853,17.499999513897706,11.191341656948852,17.461939813897704Q11.283227156948852,17.423879113897705,11.353553556948853,17.353553313897706L13.453553456948853,15.253553413897706Q13.523879756948853,15.183227013897705,13.561939956948851,15.091341713897705Q13.600000156948852,14.999455913897705,13.600000156948852,14.899999813897704Q13.600000156948852,14.800543513897704,13.561939956948851,14.708658013897704Q13.523879756948853,14.616772413897705,13.453553456948853,14.546446413897705L11.353553556948853,12.446446333897706Q11.318731556948853,12.411624373897705,11.277785056948852,12.384264943897705Q11.236838856948852,12.356905523897705,11.191341656948852,12.338060023897706Q11.145844656948853,12.319214493897706,11.097545156948852,12.309607143897704Q11.049245556948852,12.299999773897705,10.999999756948853,12.299999743897706Q10.950753956948851,12.299999773897705,10.902454656948853,12.309607113897705Q10.854155056948853,12.319214493897706,10.808658156948852,12.338060023897706Q10.763160956948852,12.356905523897705,10.722214656948852,12.384264913897706Q10.681268456948853,12.411624373897705,10.646446556948852,12.446446333897706L8.546446476948853,14.546446413897705Q8.511624516948853,14.581268313897706,8.484265086948852,14.622214513897704Q8.456905666948852,14.663160813897704,8.438060166948853,14.708657713897704Q8.419214636948853,14.754154913897706,8.409607286948852,14.802454513897706Q8.399999916948852,14.850753813897704,8.399999886948853,14.899999613897705Q8.399999916948852,14.949245413897705,8.409607256948853,14.997545013897705Q8.419214636948853,15.045844513897705,8.438060166948853,15.091341513897705Q8.456905666948852,15.136838713897705,8.484265056948853,15.177784913897705Q8.511624516948853,15.218731413897705,8.546446476948853,15.253553413897706ZM10.999999956948852,16.292892913897706L12.392893056948854,14.899999813897704L10.999999956948852,13.507106603897705L9.607106746948853,14.899999813897704L10.999999956948852,16.292892913897706Z" fill-rule="evenodd" fill="#FFFFFF" fill-opacity="1" style="mix-blend-mode:passthrough"/><path d="M4.64644662,11.353553556948853L6.7464467,13.453553456948853Q6.8167728,13.523879756948853,6.9086583,13.561939956948851Q7.0005438,13.600000156948852,7.1000001,13.600000156948852Q7.1994562,13.599999656948853,7.2913418,13.561939956948851Q7.3832273,13.523879256948852,7.4535537000000005,13.453553456948853L9.5535536,11.353553556948853Q9.6238799,11.283227156948852,9.661940099999999,11.191341856948853Q9.7000003,11.099456056948853,9.7000003,10.999999956948852Q9.7000003,10.900543656948852,9.661940099999999,10.808658156948852Q9.6238799,10.716772556948852,9.5535536,10.646446556948852L7.4535537000000005,8.546446476948853Q7.4187317,8.511624516948853,7.3777852,8.484265086948852Q7.3368389999999994,8.456905666948852,7.2913418,8.438060166948853Q7.2458448,8.419214636948853,7.1975453,8.409607286948852Q7.1492457,8.399999916948852,7.0999999,8.399999886948853Q7.0507541,8.399999916948852,7.002454800000001,8.409607256948853Q6.9541552,8.419214636948853,6.9086583,8.438060166948853Q6.8631611,8.456905666948852,6.8222148,8.484265056948853Q6.7812686,8.511624516948853,6.7464467,8.546446476948853L4.64644662,10.646446556948852Q4.61162466,10.681268456948853,4.58426523,10.722214656948852Q4.55690581,10.763160956948852,4.53806031,10.808657856948852Q4.51921478,10.854155056948853,4.50960743,10.902454656948853Q4.50000006,10.950753956948851,4.50000003,10.999999756948853Q4.50000006,11.049245556948852,4.5096074,11.097545156948852Q4.51921478,11.145844656948853,4.53806031,11.191341656948852Q4.55690581,11.236838856948852,4.5842652,11.277785056948852Q4.61162466,11.318731556948853,4.64644662,11.353553556948853ZM7.1000001,12.392893056948854L8.492893200000001,10.999999956948852L7.1000001,9.607106746948853L5.70710689,10.999999956948852L7.1000001,12.392893056948854Z" fill-rule="evenodd" fill="#FFFFFF" fill-opacity="1" style="mix-blend-mode:passthrough"/></svg>