<svg xmlns="http://www.w3.org/2000/svg" xmlns:xlink="http://www.w3.org/1999/xlink" fill="none" version="1.1" width="22" height="23" viewBox="0 0 22 23"><defs><filter id="master_svg0_44_5317" filterUnits="objectBoundingBox" color-interpolation-filters="sRGB" x="0" y="0" width="1" height="1.0454545415137428"><feFlood flood-opacity="0" result="BackgroundImageFix"/><feColorMatrix in="SourceAlpha" type="matrix" values="0 0 0 0 0 0 0 0 0 0 0 0 0 0 0 0 0 0 127 0"/><feOffset dy="1" dx="0"/><feGaussianBlur stdDeviation="0"/><feColorMatrix type="matrix" values="0 0 0 0 0.9019607901573181 0 0 0 0 0.9019607901573181 0 0 0 0 0.9019607901573181 0 0 0 1 0"/><feBlend mode="normal" in2="BackgroundImageFix" result="effect1_dropShadow"/><feBlend mode="normal" in="SourceGraphic" in2="effect1_dropShadow" result="shape"/></filter></defs><ellipse cx="11.000000953674316" cy="11.000000953674316" rx="11.000000953674316" ry="11.000000953674316" fill="#FFFFFF" fill-opacity="1" filter="url(#master_svg0_44_5317)"/><path d="M11.9404001,7.53956765C12.0692778,7.11486596,12.4613333,6.89565656,12.8160772,7.049950279C13.1708231,7.20424299,13.3539248,7.67361122,13.2250462,8.0983129L10.888084899999999,15.4609842C10.759207199999999,15.885685,10.3671522,16.1048956,10.0124068,15.9506025C9.6576614,15.7963085,9.4745607,15.3269396,9.6034389,14.9022388L11.9404001,7.53956765ZM15.108284,8.3658229C14.855809,8.0296763,14.878755,7.51214433,15.159533,7.20988323C15.44031,6.907622106,15.872595,6.9350923,16.125067,7.27123883L18.824873,10.8666761C19.058377,11.1776772,19.058377,11.649439300000001,18.824873,11.9604406L16.125067,15.5558777C15.872697,15.8915672,15.440869,15.9189816,15.16026,15.6171274C14.87965,15.3152733,14.856388,14.7983136,15.108284,14.462112399999999L17.398094999999998,11.4139667L15.108967,8.365821799999999L15.108284,8.3658229ZM7.8917167,8.3658229C8.1441898,8.0299031,8.1213975,7.51255381,7.8408096,7.21029267C7.5602214,6.908031531,7.1280901,6.935317993,6.875617,7.27123883L4.1751276,10.8666761C3.941624418,11.1776772,3.941624418,11.649439300000001,4.1751276,11.9604406L6.875617,15.5558777C7.1296625,15.8822803,7.5553076,15.9048071,7.8324189,15.6065159C8.1095309,15.3082237,8.135909999999999,14.7991204,7.8917167,14.462112399999999L5.6025873,11.4139667L7.8917167,8.3658229Z" fill="#575757" fill-opacity="1" style="mix-blend-mode:passthrough"/></svg>